<svg preserveAspectRatio="none" overflow="visible" style="display: block;" width="56.4" height="56.4" viewBox="0 0 56.4 56.4" fill="none" xmlns="http://www.w3.org/2000/svg">
<g id="uil:instagram">
<path id="Vector" d="M38.68 15.6747C38.2053 15.6747 37.7413 15.812 37.3466 16.0691C36.952 16.3262 36.6443 16.6917 36.4627 17.1193C36.281 17.5468 36.2335 18.0173 36.3261 18.4712C36.4187 18.9252 36.6473 19.3421 36.9829 19.6694C37.3186 19.9966 37.7462 20.2195 38.2118 20.3098C38.6773 20.4001 39.1599 20.3537 39.5984 20.1766C40.037 19.9995 40.4118 19.6996 40.6755 19.3148C40.9392 18.93 41.08 18.4775 41.08 18.0147C41.08 17.3941 40.8271 16.7989 40.3771 16.3601C39.927 15.9213 39.3165 15.6747 38.68 15.6747ZM47.88 20.3937C47.8407 18.7759 47.53 17.1752 46.96 15.6552C46.4538 14.3537 45.662 13.1757 44.64 12.2037C43.6496 11.2042 42.4391 10.4374 41.1 9.96123C39.5453 9.38825 37.9017 9.07829 36.24 9.04473C34.12 8.92773 33.44 8.92773 28 8.92773C22.56 8.92773 21.88 8.92773 19.76 9.04473C18.0983 9.07829 16.4547 9.38825 14.9 9.96123C13.564 10.4434 12.3547 11.2094 11.36 12.2037C10.3349 13.1693 9.54835 14.3496 9.06 15.6552C8.47232 17.1711 8.15442 18.7736 8.12 20.3937C8 22.4607 8 23.1237 8 28.4277C8 33.7317 8 34.3947 8.12 36.4617C8.15442 38.0819 8.47232 39.6844 9.06 41.2002C9.54835 42.5059 10.3349 43.6861 11.36 44.6517C12.3547 45.6461 13.564 46.4121 14.9 46.8942C16.4547 47.4672 18.0983 47.7772 19.76 47.8107C21.88 47.9277 22.56 47.9277 28 47.9277C33.44 47.9277 34.12 47.9277 36.24 47.8107C37.9017 47.7772 39.5453 47.4672 41.1 46.8942C42.4391 46.4181 43.6496 45.6513 44.64 44.6517C45.6645 43.6818 46.4567 42.5032 46.96 41.2002C47.53 39.6803 47.8407 38.0796 47.88 36.4617C47.88 34.3947 48 33.7317 48 28.4277C48 23.1237 48 22.4607 47.88 20.3937ZM44.28 36.2277C44.2658 37.4656 44.0359 38.6921 43.6 39.8547C43.2807 40.7034 42.7678 41.4702 42.1 42.0972C41.4509 42.7412 40.6662 43.2402 39.8 43.5597C38.6075 43.9847 37.3496 44.2089 36.08 44.2227C34.08 44.3202 33.34 44.3397 28.08 44.3397C22.82 44.3397 22.08 44.3397 20.08 44.2227C18.7617 44.248 17.4489 44.05 16.2 43.6377C15.3724 43.301 14.6238 42.8034 14 42.1752C13.3362 41.5488 12.8297 40.7814 12.52 39.9327C12.0301 38.7538 11.7592 37.4992 11.72 36.2277C11.72 34.2777 11.6 33.5562 11.6 28.4277C11.6 23.2992 11.6 22.5777 11.72 20.6277C11.7273 19.3621 11.9643 18.1078 12.42 16.9227C12.7721 16.0997 13.3125 15.366 14 14.7777C14.6058 14.1054 15.3573 13.5725 16.2 13.2177C17.4188 12.7877 18.7039 12.5635 20 12.5547C22 12.5547 22.74 12.4377 28 12.4377C33.26 12.4377 34 12.4377 36 12.5547C37.2696 12.5686 38.5275 12.7927 39.72 13.2177C40.6289 13.5466 41.4446 14.0813 42.1 14.7777C42.7534 15.3784 43.2652 16.1103 43.6 16.9227C44.0449 18.1101 44.275 19.3637 44.28 20.6277C44.38 22.5777 44.4 23.2992 44.4 28.4277C44.4 33.5562 44.38 34.2777 44.28 36.2277ZM28 18.4242C25.9716 18.4281 23.9899 19.0181 22.3053 20.1196C20.6207 21.2211 19.3088 22.7848 18.5353 24.6131C17.7618 26.4413 17.5614 28.452 17.9596 30.3912C18.3577 32.3304 19.3365 34.1111 20.7722 35.5081C22.2078 36.9052 24.036 37.856 26.0257 38.2404C28.0154 38.6248 30.0773 38.4256 31.9509 37.6679C33.8245 36.9102 35.4258 35.628 36.5523 33.9834C37.6788 32.3387 38.28 30.4054 38.28 28.4277C38.2826 27.1117 38.0184 25.8081 37.5025 24.592C36.9866 23.3759 36.2291 22.2712 35.2737 21.3415C34.3184 20.4119 33.1839 19.6755 31.9356 19.1748C30.6873 18.6742 29.3498 18.4191 28 18.4242ZM28 34.9212C26.6828 34.9212 25.3951 34.5404 24.2999 33.8269C23.2047 33.1134 22.351 32.0992 21.847 30.9127C21.3429 29.7262 21.211 28.4205 21.468 27.1609C21.7249 25.9013 22.3593 24.7443 23.2907 23.8361C24.2221 22.928 25.4088 22.3096 26.7007 22.059C27.9926 21.8085 29.3317 21.937 30.5487 22.4285C31.7656 22.92 32.8058 23.7523 33.5376 24.8201C34.2694 25.888 34.66 27.1434 34.66 28.4277C34.66 29.2805 34.4877 30.1249 34.153 30.9127C33.8183 31.7005 33.3278 32.4164 32.7093 33.0193C32.0909 33.6223 31.3567 34.1006 30.5487 34.4269C29.7406 34.7533 28.8746 34.9212 28 34.9212Z" fill="#8D7E77"/>
</g>
</svg>
