<svg preserveAspectRatio="none" overflow="visible" style="display: block;" width="425.003" height="509.418" viewBox="0 0 425.003 509.418" fill="none" xmlns="http://www.w3.org/2000/svg">
<g id="trans_04">
<path id="brand_history_pet" fill-rule="evenodd" clip-rule="evenodd" d="M11.4512 90.6045C15.1268 86.3264 36.2301 62.9428 40.8376 62.3566C41.7079 62.2462 42.3725 62.855 43.011 63.3664C49.0074 68.1702 54.3302 73.923 60.4326 78.6042C63.869 81.2398 67.9131 83.0146 71.498 85.4351C71.2214 86.307 70.988 86.9159 70.9336 87.8382C71.3584 88.6092 71.3534 88.448 72.1647 88.9571L73.1349 88.6669C73.2947 88.6209 73.4537 88.577 73.6123 88.5389C73.7711 88.5007 73.9295 88.468 74.0875 88.4422C74.4821 88.3778 74.8752 88.3596 75.2703 88.4227C75.508 88.4606 75.7464 88.5281 75.9863 88.6329C76.0146 88.6682 76.0422 88.7051 76.0674 88.7415C76.1434 88.8516 76.2057 88.9666 76.2551 89.0859L76.3369 89.3305C76.667 90.5783 75.8024 92.2198 74.9041 93.6927C74.7843 93.8891 74.6638 94.0825 74.5455 94.2716C74.191 94.8388 73.8556 95.3668 73.6143 95.8201C73.5742 95.8955 73.5367 95.9689 73.5021 96.0399C73.4371 96.1737 73.3832 96.2998 73.3413 96.4166C73.3386 96.424 73.3351 96.4312 73.3325 96.4385C73.2895 96.5617 73.261 96.6746 73.2498 96.7759C73.2451 96.8184 73.2458 96.8588 73.2474 96.8972C73.2477 96.9041 73.2459 96.9111 73.2464 96.918L74.575 98.0272C79.9021 102.842 89.2007 109.433 95.1205 113.364L95.805 113.68C99.7752 115.52 103.453 117.13 107.067 118.591C108.307 119.092 109.539 119.576 110.773 120.045C112.303 120.626 113.836 121.186 115.389 121.729C116.212 122.017 117.041 122.3 117.879 122.58C118.81 122.891 119.751 123.2 120.707 123.503C123.22 124.301 125.831 125.074 128.603 125.849C128.99 125.957 129.379 126.067 129.772 126.176C130.513 126.379 131.264 126.58 132.021 126.782C136.623 128.004 141.487 129.195 146.068 130.52C146.845 130.745 147.614 130.973 148.372 131.207C148.726 131.316 149.078 131.426 149.427 131.537C149.767 131.645 150.103 131.754 150.437 131.864C156.04 133.66 161.572 135.655 167.024 137.838C171.49 139.626 175.902 141.543 180.254 143.585C182.445 144.614 184.622 145.674 186.782 146.766C189.385 148.081 191.964 149.443 194.52 150.849C196.126 151.733 197.722 152.634 199.308 153.553C200.882 154.465 202.448 155.392 204.002 156.338C208.183 158.885 212.29 161.557 216.321 164.35C216.827 164.702 217.334 165.053 217.838 165.408C218.677 166.011 219.514 166.637 220.35 167.277C222.797 169.154 225.237 171.161 227.706 173.13C227.8 173.204 227.894 173.28 227.988 173.354C230.605 175.435 233.257 177.463 235.987 179.239C236.242 179.404 236.498 179.567 236.755 179.728C237.259 180.045 237.765 180.355 238.275 180.652C239.812 181.548 240.918 185.704 242.63 186.826C249.396 193.743 258.144 200.64 264.802 207.412L389.482 322.595C390.934 323.923 395.576 326.515 396.006 327.262C398.418 331.454 400.371 333.338 403.718 336.738C405.897 338.96 407.95 341.305 409.866 343.759C413.836 348.873 424.776 369.914 424.993 375.544C425.131 379.109 423.732 383.357 421.278 385.976C418.925 388.485 406.036 394.587 402.581 394.842C403.646 399.462 407.174 411.262 403.863 415.098C390.555 430.507 386.369 441.693 363.692 434.579C364.848 439.379 360.756 450.779 358.41 455.189C356.926 457.985 352.422 461.209 349.118 461.833C336.104 464.294 320.015 455.096 309.069 448.707C305.428 446.582 302.012 443.717 298.673 441.256C296.359 439.55 293.407 438.014 291.46 436.065C289.598 434.202 288.224 431.439 286.25 429.605L260.166 405.838L208.574 358.727C198.314 349.512 188.119 340.223 177.99 330.863C173.446 326.669 168.048 321.933 163.747 317.638C165.166 316.999 166.34 316.432 167.41 315.873C166.982 316.096 166.538 316.322 166.068 316.552C165.363 316.897 164.598 317.254 163.747 317.638C154.286 308.839 145.034 299.798 134.824 291.897C133.368 290.769 131.712 288.027 130.243 286.631C126.983 283.533 123.613 280.512 120.566 277.203C103.606 258.419 88.6362 236.488 79.6917 212.71C78.5965 209.799 77.1224 206.915 76.1392 203.939C71.7459 190.645 67.604 177.194 60.6148 164.972C55.1706 155.528 49.4175 148.925 42.4694 141.411L39.4167 138.125C38.8927 137.677 38.5353 137.219 38.085 136.745C38.0814 136.742 38.0779 136.738 38.0742 136.734C37.9367 136.589 37.7904 136.444 37.6277 136.296C37.5277 136.206 37.4216 136.114 37.3075 136.022C36.8795 135.951 36.662 135.942 36.4697 136.006C36.4424 136.016 36.4155 136.026 36.3887 136.038C36.2807 136.087 36.1724 136.161 36.029 136.262C35.8856 136.363 35.7071 136.491 35.459 136.648L35.2677 136.86C34.0831 138.024 31.0192 140.037 29.3701 139.123C29.3634 139.112 29.3573 139.102 29.3508 139.091C28.9279 138.434 28.9096 138.296 28.892 137.485C28.9915 137.177 29.1505 136.827 29.3348 136.469C29.5239 136.101 29.7427 135.727 29.9453 135.377C30.0714 135.16 30.1894 134.951 30.2965 134.763L30.1287 134.674C27.8007 133.816 27.4638 133.946 24.9971 134.249C23.5584 132.136 22.3696 129.601 20.7368 127.61C19.8936 126.581 19.4284 126.16 18.8368 124.94C18.7078 124.751 18.5687 124.567 18.4241 124.387C18.2586 124.18 18.0846 123.979 17.9038 123.782C17.7343 123.598 17.56 123.417 17.3815 123.239C16.49 122.354 15.5143 121.549 14.7302 120.736C11.5843 117.474 2.76492 110.419 0.225594 106.785C0.143901 106.669 0.0682955 106.555 3.69493e-06 106.446C0.0361946 106.233 0.0797819 106.03 0.130589 105.836C0.206687 105.545 0.298367 105.274 0.404031 105.016C0.439304 104.93 0.475753 104.845 0.514034 104.761C0.743667 104.258 1.02723 103.796 1.34701 103.318C1.56012 102.999 1.78958 102.673 2.03126 102.323L4.35083 99.3666C6.67065 96.4078 9.00205 93.455 11.4512 90.6045ZM229.822 257.845C228.948 258.856 228.07 259.862 227.186 260.864L228.529 259.334C228.961 258.839 229.392 258.342 229.822 257.845Z" fill="#F29556"/>
</g>
</svg>
