<svg width="153" height="84" viewBox="0 0 153 84" fill="none" xmlns="http://www.w3.org/2000/svg">
<path d="M98.8027 75.1396C101.902 70.0731 108.294 66.6931 114.259 67.8281C117.592 68.4624 118.585 68.723 121.362 70.5205C123.053 71.5187 123.599 72.1591 124.795 73.75C124.937 73.9395 125.611 74.8811 125.724 74.9844C126.155 76.2663 126.21 78.1432 125.606 79.3672C125.142 80.3099 124.319 81.0274 123.32 81.3564C122.666 81.5748 122.108 81.5125 121.435 81.459L120.019 80.5254C118.634 79.2382 117.033 76.977 115.627 76.1543C113.177 74.7198 107.692 76.1799 105.718 77.9687C103.214 80.2378 104.059 82.1329 100.063 83.2109C99.5364 82.9642 99.067 82.6683 98.5703 82.3681C97.8833 80.153 97.6008 77.1048 98.8027 75.1396ZM36.7832 67.7783C38.7191 67.3574 41.2593 67.3106 43.1006 68.1103C43.7211 68.3416 44.4319 68.6427 45.0693 68.8037C48.382 69.6403 51.6858 72.3088 53.2188 75.373C54.0435 77.0219 53.9635 79.4162 53.7812 81.2685C52.9526 81.3359 52.122 81.384 51.291 81.414C50.4637 81.5328 49.8171 81.3058 49.125 80.9638L48.8252 80.8105C47.6307 79.8633 47.1358 79.1737 46.2393 78.2724L45.8271 77.872C43.7457 76.4459 41.4305 75.4706 38.8926 75.9941C36.9538 76.3943 34.6124 77.1998 33.3936 78.8437C32.4444 80.1241 31.9119 81.0979 30.8027 82.25C29.3844 82.0802 28.3764 81.9393 27.1904 81.0273C25.3383 79.8667 25.9275 77.2443 26.1514 75.4414C29.308 72.2358 32.0941 68.7979 36.7832 67.7783ZM32.4385 54.0654C36.9174 52.8368 42.6785 52.2391 47.3516 53.208C47.7059 53.2815 49.9999 54.6348 50.8047 54.9365C51.7724 55.2994 55.334 56.5537 56.0342 57.0654C59.8483 59.8526 63.554 64.3305 65.4131 68.6924C66.0912 70.301 66.284 72.1477 66.8223 73.7988C67.5456 76.0181 66.0631 79.5996 63.7139 80.2187C62.8503 80.4463 61.6089 79.9891 61.1309 79.2383C59.1385 76.1083 58.7157 72.0847 56.458 69.0547C55.244 67.475 51.6122 64.6856 49.8584 63.6611C45.3497 61.0274 41.454 60.238 36.4053 61.3847C31.0105 62.6101 27.0373 65.4205 24.0605 70.0849C23.1619 71.4931 22.6092 72.8572 21.7617 74.2373C20.9445 75.9729 19.2941 76.9448 17.5332 75.9814L17.3623 75.8818C16.456 75.2574 15.1898 74.3598 14.9482 73.2392C14.4281 70.825 15.6941 68.0555 16.8174 65.9892C17.8467 64.0957 18.8185 63.1148 20.1182 61.5371C23.7155 57.1702 27.0198 55.5519 32.4385 54.0654ZM114.438 52.8232C117.948 52.9331 125.175 55.55 128.179 57.2617C131.511 59.8626 134.149 63.6734 136.756 66.9726C137.3 67.6619 137.973 69.4788 138.103 70.2451C138.621 73.3297 136.118 75.0483 133.813 76.4013C130.408 75.0819 130.431 71.8448 128.254 68.9756C119.649 57.6302 102.283 59.2362 95.7676 71.7666C94.3798 74.4357 93.6549 77.2114 92.0488 79.9463C90.502 80.1813 89.3841 80.4994 87.9229 79.831C87.6759 79.4161 86.8145 78.0275 86.7646 77.6123C85.142 74.1532 87.9692 69.8019 89.585 66.6572C91.5995 62.736 96.4263 58.6523 100.188 56.4092C101.698 55.5093 103.591 55.4119 105.033 54.583C106.68 53.8741 108.587 53.7674 110.423 53.4092C111.374 53.2229 113.442 52.7921 114.438 52.8232ZM75.1289 0.157204C79.1589 -0.380633 85.1492 0.554799 89.1211 1.55369C91.8606 2.24275 96.3375 4.55149 98.9521 5.7656C103.325 7.79625 106.69 11.3569 110.061 14.6504C113.903 18.4051 116.28 22.9027 118.513 27.7461C119.53 29.9663 119.635 32.7838 120.345 35.166C120.786 37.1529 122.671 37.764 124.491 38.3779C130.037 40.2485 135.283 42.6634 140.033 46.1396C143.298 48.5286 145.904 51.8001 148.382 54.9726C150.843 58.123 151.78 60.7899 153 64.5791L152.907 64.7607C151.878 66.7991 150.078 68.3435 147.908 69.0517C146.411 69.5246 145.209 69.5466 143.824 68.8242C142.226 66.7048 140.842 63.4135 139.545 61.0888C137.445 57.325 135.039 55.4665 131.528 53.0898C129.267 51.5584 127.429 49.6821 124.65 48.9814C123.096 48.3424 121.285 48.1159 119.707 47.6562C113.197 45.7602 106.32 46.7043 100.23 49.6767C95.0962 52.183 90.1866 56.3646 86.3984 60.7099C85.3502 61.9123 84.2982 64.0025 83.4297 65.3613C81.4549 68.4488 80.9801 71.4927 80.2959 75.0049C80.0406 76.3148 79.1337 78.1583 78.665 79.5293C78.6396 79.5774 78.4416 79.8064 78.3936 79.8642C77.0487 80.3981 74.5631 79.0409 73.8965 77.9033C73.279 76.8491 73.243 74.7657 72.9199 73.5107C72.216 70.776 71.6715 67.9307 70.7354 65.2646C69.594 62.5512 66.8487 58.1624 64.6514 56.1806C62.5859 54.3181 60.8916 53.2595 58.5654 51.8564C51.7476 47.7439 45.8519 46.0091 37.8076 46.5605C33.8292 46.8332 32.5172 47.3738 28.8926 48.584C23.1004 50.518 19.2979 53.025 15.335 57.6738C14.5895 58.5482 13.3707 59.8391 12.7344 60.7822C11.3508 62.8331 10.7308 65.3887 9.04492 67.2783C8.92624 67.3223 8.80566 67.362 8.68457 67.3984C6.22428 68.1417 3.05457 67.5211 1.14648 65.7754C0.371273 65.066 0.285339 64.4595 0 63.4902C0.99015 59.0034 8.29193 50.4382 11.9512 47.3965C14.7421 45.0766 20.3693 41.9363 23.7227 40.5049C24.5358 40.1578 27.681 39.1634 28.624 38.9209C30.6981 38.3878 32.548 39.071 34.4443 37.3291C34.8153 35.9927 34.765 34.4554 35.0332 33.2939C35.9252 29.4321 38.3717 22.5865 40.6904 19.4609C43.4107 15.7941 47.9308 10.7598 51.541 7.99412C53.9068 6.18199 59.0541 3.67482 61.8945 2.69138C63.5237 2.17392 65.6197 0.953734 67.3184 0.756813C69.9721 0.449286 72.4104 0.519909 75.1289 0.157204ZM76.8447 40.6181C72.6408 41.6608 70.6783 43.1711 69.0791 47.2226C71.5655 49.1576 74.7769 54.8451 76.8301 57.665C77.0427 57.391 77.4015 56.9001 77.624 56.664C79.4443 55.233 81.2343 52.8773 82.8252 51.1826C83.8474 50.0937 85.7209 49.0373 85.8574 47.5791C86.2769 43.2184 80.5692 40.322 76.8447 40.6181ZM84.6084 27.1904C82.7302 26.4886 78.3323 26.0513 76.3018 26.2304C73.1915 26.3882 67.2583 28.075 64.709 30.0107C62.3029 31.8377 58.1125 35.8163 58.3857 39.0937C58.4839 40.2688 59.0158 41.2992 60.374 41.1494C63.0011 40.7836 64.0863 37.7612 66.248 36.5136C69.8179 34.1184 77.1016 31.7325 81.2471 32.9814C82.8463 33.2658 87.3046 35.1625 88.7402 36.042C91.1881 37.5413 92.4818 41.4197 95.0889 43.0371C95.8173 42.6837 96.7741 42.3357 97.042 41.5273C97.4474 40.3034 95.9791 36.4688 95.4873 35.4004C93.9835 32.1334 87.8066 28.3858 84.6084 27.1904ZM77.9766 10.29C69.4291 10.3949 58.3821 15.2599 52.2119 21.2441C49.81 23.5737 47.3922 28.9465 46.1025 32.081C44.8721 35.0719 43.4544 37.2399 47.96 37.5C48.2148 37.3899 48.8444 37.1211 49.0352 36.8926C50.3118 35.3618 50.9718 33.412 51.96 31.6455C54.3964 27.2897 57.6183 23.7243 61.9795 21.291C67.7222 18.0869 71.8403 17.4876 78.2676 17.4345C90.3107 16.7199 99.067 23.8633 104.179 34.2773C105.766 37.5109 105.658 40.1091 109.773 37.789C109.842 36.2772 109.883 34.6476 109.478 33.2031C107.282 25.3727 101.616 19.3826 94.8916 15.1396C91.6705 13.1072 90.6648 12.854 87.0566 11.8398C83.6683 10.8874 81.6353 10.1768 77.9766 10.29Z" fill="white"/>
</svg>
