<svg preserveAspectRatio="none" overflow="visible" style="display: block;" width="60" height="60" viewBox="0 0 60 60" fill="none" xmlns="http://www.w3.org/2000/svg">
<g id="Ellipse 33">
<mask id="path-1-inside-1_3716_3272" fill="white">
<path d="M60 30C60 46.5685 46.5685 60 30 60C13.4315 60 0 46.5685 0 30C0 13.4315 13.4315 0 30 0C46.5685 0 60 13.4315 60 30ZM14.1362 30C14.1362 38.7613 21.2387 45.8638 30 45.8638C38.7613 45.8638 45.8638 38.7613 45.8638 30C45.8638 21.2387 38.7613 14.1362 30 14.1362C21.2387 14.1362 14.1362 21.2387 14.1362 30Z"/>
</mask>
<path d="M60 30C60 46.5685 46.5685 60 30 60C13.4315 60 0 46.5685 0 30C0 13.4315 13.4315 0 30 0C46.5685 0 60 13.4315 60 30ZM14.1362 30C14.1362 38.7613 21.2387 45.8638 30 45.8638C38.7613 45.8638 45.8638 38.7613 45.8638 30C45.8638 21.2387 38.7613 14.1362 30 14.1362C21.2387 14.1362 14.1362 21.2387 14.1362 30Z" fill="#D4E400" fill-opacity="0.3" stroke="#D4E400" mask="url(#path-1-inside-1_3716_3272)"/>
</g>
</svg>
