<svg width="270" height="34" viewBox="0 0 270 34" fill="none" xmlns="http://www.w3.org/2000/svg">
<path d="M5.62612 17.9203V7.90029H0V32.4464H5.62612V22.8426L11.9441 32.4464H18.4823C18.4823 32.4464 10.6144 20.2698 10.5005 20.1005L18.2343 7.90029H12.0749L5.62612 17.9203Z" fill="#4C3B33"/>
<path d="M29.9041 7.33164C24.0561 7.33164 18.0165 12.1243 18.0165 20.1367C18.0165 28.1921 24.0553 33.0159 29.9041 33.0159C35.6889 33.0159 41.8474 28.503 41.8474 20.1367C41.8474 12.1209 35.7724 7.33164 29.9041 7.33164ZM29.9041 27.4904C26.8666 27.4904 23.7043 24.7364 23.7043 20.1401C23.7043 15.5572 26.8641 12.8201 29.9041 12.8201C32.9796 12.8201 36.1529 15.5564 36.1529 20.1401C36.1529 24.7364 32.9796 27.4904 29.9041 27.4904Z" fill="#4C3B33"/>
<path d="M55.8051 7.33164C49.9697 7.33164 43.92 12.1243 43.92 20.1367C43.92 28.1921 49.9697 33.0159 55.8051 33.0159C61.5966 33.0159 67.7365 28.503 67.7365 20.1367C67.7365 12.1209 61.6616 7.33164 55.8051 7.33164ZM55.8051 27.4904C52.7608 27.4904 49.6052 24.7364 49.6052 20.1401C49.6052 15.5572 52.7617 12.8201 55.8051 12.8201C58.8654 12.8201 62.0488 15.5564 62.0488 20.1401C62.0488 24.7364 58.8612 27.4904 55.8051 27.4904Z" fill="#4C3B33"/>
<path d="M76.1262 17.9203V7.90029H70.495V32.4464H76.1262V22.8426L82.4425 32.4464H88.9866C88.9866 32.4464 81.1136 20.269 81.0115 20.0996C81.1144 19.9202 88.7318 7.89944 88.7318 7.89944H82.5791L76.1262 17.9203Z" fill="#4C3B33"/>
<path d="M90.1057 30.8888L89.5758 24.7726C91.4582 26.6275 93.9788 27.6948 96.6228 27.7566C98.4217 27.7566 99.5059 26.9377 99.5059 25.5662C99.5059 24.1846 98.7853 23.5233 96.1528 22.4854C92.3281 20.9952 90.2398 18.2783 90.2398 14.8192C90.2398 10.3248 93.3398 7.30637 97.9483 7.30637C99.9019 7.22521 101.832 7.75825 103.466 8.83034L103.02 14.1428C101.675 13.121 100.047 12.5395 98.3584 12.4781C96.7367 12.4781 95.7529 13.1959 95.7529 14.4107C95.7529 15.3626 96.2718 16.0669 99.0013 17.0627C102.921 18.5091 105.168 21.4071 105.168 24.9993C105.168 30.0177 102.057 33.0193 96.8624 33.0193C94.4283 33.13 92.0347 32.3751 90.1057 30.8888Z" fill="#4C3B33"/>
<path d="M118.654 7.33164C112.798 7.33164 106.749 12.1243 106.749 20.1367C106.749 28.1921 112.798 33.0159 118.654 33.0159C124.445 33.0159 130.582 28.503 130.582 20.1367C130.582 12.1209 124.527 7.33164 118.654 7.33164ZM118.654 27.4904C115.602 27.4904 112.449 24.7364 112.449 20.1401C112.449 15.5572 115.602 12.8201 118.654 12.8201C121.706 12.8201 124.898 15.5564 124.898 20.1401C124.898 24.7364 121.715 27.4904 118.654 27.4904Z" fill="#4C3B33"/>
<path d="M144.554 7.33164C138.701 7.33164 132.642 12.1243 132.642 20.1367C132.642 28.1921 138.701 33.0159 144.554 33.0159C150.335 33.0159 156.493 28.503 156.493 20.1367C156.493 12.1209 150.41 7.33164 144.554 7.33164ZM144.554 27.4904C141.503 27.4904 138.347 24.7364 138.347 20.1401C138.347 15.5572 141.504 12.8201 144.554 12.8201C147.627 12.8201 150.781 15.5564 150.781 20.1401C150.781 24.7364 147.627 27.4904 144.554 27.4904Z" fill="#4C3B33"/>
<path d="M177.151 32.7126H180.056V7.90029H174.437V17.1764C174.437 18.5841 174.461 19.9868 174.511 21.3043L163.755 7.90029H159.241V32.4464H164.871V22.0373C164.871 20.5537 164.82 18.8688 164.772 17.3322L177.151 32.7126Z" fill="#4C3B33"/>
<path d="M191.011 7.90029H183.485V32.4464H191.01C196.921 32.4464 202.884 28.2224 202.884 20.1729C202.884 12.1234 196.922 7.90029 191.011 7.90029ZM188.918 13.2776H190.399C194.556 13.2776 197.247 15.9877 197.247 20.1746C197.247 24.3615 194.555 27.0776 190.399 27.0776H188.918V13.2776Z" fill="#4C3B33"/>
<path d="M243.825 32.7126H246.725V7.90029H241.109V17.1764C241.109 18.5841 241.141 19.9868 241.194 21.3043L230.418 7.90029H225.922V32.4464H231.534V22.0373C231.534 20.5537 231.497 18.8688 231.434 17.3322L243.825 32.7126Z" fill="#4C3B33"/>
<path d="M270 30.422V19.0314H260.847V23.8738H264.813V27.0236C263.958 27.5094 262.982 27.7381 262 27.6824C257.927 27.6824 255.069 24.6623 255.069 20.3271C255.069 15.9329 258.064 12.7452 262.162 12.7452C264.398 12.7239 266.571 13.4921 268.296 14.9144L268.749 9.36023C266.649 7.95312 264.158 7.24325 261.63 7.33164C255.73 7.33164 249.48 11.8353 249.48 20.1746C249.48 28.599 255.654 33.0193 261.764 33.0193C264.543 33.0193 267.643 32.4633 269.998 30.4212" fill="#4C3B33"/>
<path d="M218.515 32.4481H224.026L215.327 7.72674H211.432L202.737 32.4481H208.233L209.821 27.3985H216.924L218.515 32.4481ZM211.33 22.6354L213.383 16.1157L215.43 22.6354H211.33Z" fill="#4C3B33"/>
<path d="M100.567 2.73279C100.567 4.24207 99.3438 5.46558 97.8345 5.46558C96.3253 5.46558 95.1017 4.24207 95.1017 2.73279C95.1017 1.22351 96.3253 0 97.8345 0C99.3438 0 100.567 1.22351 100.567 2.73279Z" fill="#F29556"/>
</svg>
