<svg width="92" height="57" viewBox="0 0 92 57" fill="none" xmlns="http://www.w3.org/2000/svg">
<path d="M10.1063 5.89869C11.0679 5.89869 12.3326 5.70637 14.1232 5.41498C15.136 5.25016 16.3946 5.3159 25.9335 4.64278C35.4723 3.96965 53.2621 2.6234 62.8592 1.97796C73.3126 1.27493 74.8866 1.52775 76.0507 1.62391C76.879 1.69234 77.8005 2.11054 79.1089 2.78367C83.3121 4.94615 81.1079 10.4503 81.883 13.2696C82.7885 16.5632 83.2467 19.1922 83.7304 21.8643C84.186 24.3808 83.7333 26.2935 83.4915 26.9229C82.7151 28.9432 80.3386 31.0462 78.156 33.475C76.3829 35.4482 74.4174 37.1655 71.8925 38.7725C70.6304 39.5758 68.0154 40.1814 64.9106 41.1023C62.88 41.7045 59.5737 43.2848 54.9653 44.8379C52.051 45.8201 47.2476 45.82 41.2784 45.7719C36.5132 45.7335 33.8201 44.7534 29.6094 42.8244C26.9403 41.6016 22.4382 38.6866 19.82 37.1072C16.6784 35.2121 14.2062 32.7275 10.81 29.0909C7.24752 25.2762 5.46144 21.5641 3.98989 18.5817C3.29615 17.1757 2.72815 15.812 2.04628 14.1131C1.9472 13.2885 1.75488 12.6037 1.51157 11.8781C1.46057 11.441 1.55673 10.8641 2.2386 9.97824" stroke="#F29556" stroke-width="3" stroke-linecap="round" stroke-linejoin="round"/>
<path d="M31.0859 41.4486C31.3773 48.1216 31.5697 54.3633 32.1015 54.898C33.2331 56.0359 36.9838 54.0836 41.0765 53.5911C42.0489 53.4741 43.1089 53.3026 46.0098 53.1555C48.9106 53.0083 53.6225 52.9122 56.5306 52.7665C60.4103 52.5721 63.2182 52.2303 66.2749 52.1341C68.1036 52.0766 71.1762 51.6475 74.9644 51.5033C76.2594 51.4539 76.2523 51.0705 76.1081 50.6334C75.4471 48.6304 74.603 47.3815 73.9241 45.6316C73.3566 44.1691 72.5633 42.9114 71.7881 41.5025C70.7158 40.1898 70.5235 38.8319 69.8445 37.423C69.6493 37.0806 69.457 36.7921 68.676 35.9121" stroke="#F29556" stroke-width="3" stroke-linecap="round" stroke-linejoin="round"/>
<path d="M66.4766 14.0954C66.7309 14.0954 66.9852 14.0954 68.8456 14.0699C70.7059 14.0445 74.1646 13.9937 76.9382 13.8149C79.7118 13.6361 81.6954 13.3309 83.0734 13.1737C84.4513 13.0165 85.1634 13.0165 85.4539 13.0928C85.7444 13.1691 85.5918 13.3216 85.2335 13.502C84.8751 13.6823 84.3156 13.8858 82.6541 14.372C80.9926 14.8583 78.246 15.6213 75.8901 16.4212C73.5342 17.2211 71.6523 18.035 70.5048 18.5559C68.9851 19.2458 68.3801 19.7443 68.1219 20.1805C67.9292 20.5061 68.787 20.5689 69.1199 20.5943C69.5101 20.6241 72.1039 20.723 76.0311 20.7739C78.1834 20.8017 79.4174 21.0313 80.6982 21.133C82.1096 21.2451 83.9843 21.6986 85.9857 21.8266C88.2044 22.1102 89.2864 22.2119 89.543 22.2897C89.647 22.2658 89.6979 22.1133 89.7503 21.956" stroke="#F29556" stroke-width="3" stroke-linecap="round" stroke-linejoin="round"/>
<path d="M70.6367 29.2002C71.5523 29.4545 72.4678 29.7088 74.8214 29.8907C77.1749 30.0726 80.9388 30.1743 82.8523 30.1504C84.7659 30.1265 84.715 29.9739 84.6626 29.8167" stroke="#F29556" stroke-width="3" stroke-linecap="round" stroke-linejoin="round"/>
</svg>
