<svg width="327" height="302" viewBox="0 0 327 302" fill="none" xmlns="http://www.w3.org/2000/svg">
<path d="M6.14655 1.18848C63.9946 -1.70948 133.788 1.77587 192.622 0.446023C217.919 -0.126551 302.232 -0.586486 323.279 2.90991C324.424 15.9609 324.738 32.2387 324.452 45.3414C322.789 122.691 345.076 199.909 273.014 252.502C265.193 257.4 261.409 259.024 252.76 262.604C252.91 275.557 252.384 286.212 251.597 299.076C211.084 301.267 123.037 302.085 83.9866 299.254C81.9041 286.086 81.8416 276.495 81.5523 263.281C-3.40179 230.532 2.8215 146.589 1.33494 74.8252C0.882605 53.6382 -0.545965 32.3143 0.223856 11.1587C0.444506 5.14849 1.89567 4.24898 6.14655 1.18848Z" fill="#EADFD8"/>
</svg>
