<svg preserveAspectRatio="none" overflow="visible" style="display: block;" width="250.943" height="350" viewBox="0 0 250.943 350" fill="none" xmlns="http://www.w3.org/2000/svg">
<path id="best_bottle" d="M58.995 0.676467C72.929 0.0572084 187.146 -0.89081 191.878 1.83434C192.814 12.6977 148.661 40.6212 164.387 66.3199C186.706 101.651 218.354 123.224 237.342 162.109C266.697 222.216 248.45 314.783 183.437 344.688C163.917 351.016 111.689 350.52 90.2419 349.103C67.6015 347.607 49.8132 337.461 35.0813 320.661C17.0787 300.132 6.47164 275.439 2.15954 248.699C-16.1261 135.31 87.6535 97.8504 90.0567 54.2852C90.8098 40.6471 79.8928 29.6493 71.3217 20.3067C66.583 15.1407 58.659 7.98144 58.995 0.676467Z" fill="#232323"/>
</svg>
